# xmcd
#
# Track frame offsets: 
#        150
#        25942
#        43125
#        62805
#
# Disc length: 1042 seconds
#
# Revision: 1
# Processed by: cddbd v1.5.2PL0 Copyright (c) Steve Scherf et al.
# Submitted via: ExactAudioCopyFreeDBPlugin 1.0
#
DISCID=31041004
DTITLE=小島麻由美 - 真夜中のパーティー
DYEAR=1998
DGENRE=J-Pop
TTITLE0=真夜中のパーティー
TTITLE1=私の恋人
TTITLE2=プレイガーリー@19980618 NHK505スタジオ
TTITLE3=セシルカットブルース@19980618 NHK505スタジオ
EXTD=YEAR: 1998
EXTT0=
EXTT1=
EXTT2=
EXTT3=
PLAYORDER=
